<svg id="Line" xmlns="http://www.w3.org/2000/svg" viewBox="0 0 64 64"><title>1</title><path d="M55,4.00043H9.02a5.00588,5.00588,0,0,0-5,5c.01411,4.87661-.01026,40.24216,0,46a5.00584,5.00584,0,0,0,5,5H55a5.00588,5.00588,0,0,0,5-5v-46A5.00588,5.00588,0,0,0,55,4.00043Zm-45.98,2H55a3.00328,3.00328,0,0,1,3,3v7H6.02v-7A3.00328,3.00328,0,0,1,9.02,6.00043Zm45.98,52H9.02a3.00328,3.00328,0,0,1-3-3v-37H58v37A3.00328,3.00328,0,0,1,55,58.00043Z"/><path d="M51.023,12a1.00019,1.00019,0,0,0-.00006-2A1.00019,1.00019,0,0,0,51.023,12Z"/><path d="M47.02441,12a1.00019,1.00019,0,0,0-.00006-2A1.00019,1.00019,0,0,0,47.02441,12Z"/><path d="M43.02594,12a1.00019,1.00019,0,0,0-.00006-2A1.00019,1.00019,0,0,0,43.02594,12Z"/><path d="M26.74951,41.54145l-.571-.81574a2.96686,2.96686,0,0,0,.43139-1.52606V30.39984a3.00328,3.00328,0,0,0-3-3H18.00977a3.00328,3.00328,0,0,0-3,3v8.79981a3.00328,3.00328,0,0,0,3,3h5.60009a2.96632,2.96632,0,0,0,1.02472-.192l.47626.68024A1.00014,1.00014,0,0,0,26.74951,41.54145Zm-8.73974-1.3418a1.001,1.001,0,0,1-1-1V30.39984a1.001,1.001,0,0,1,1-1h5.60009a1.001,1.001,0,0,1,1,1v8.08533l-.26074-.37244a1.00014,1.00014,0,0,0-1.63863,1.14654l.65835.94038Z"/><path d="M37.25732,27.50531a1.00067,1.00067,0,0,0-1.34179.44727l-9.6001,19.20019a1.00011,1.00011,0,1,0,1.78906.89453l9.6001-19.20019A1,1,0,0,0,37.25732,27.50531Z"/><path d="M46.41016,33.80023H40.00977a2.60234,2.60234,0,0,0-2.59961,2.59961V47.6a1.00018,1.00018,0,0,0,2-.00006V42.19965h7.59961V47.6a1.00019,1.00019,0,0,0,2-.00007V36.39984A2.60235,2.60235,0,0,0,46.41016,33.80023Zm-7,6.39942V36.39984a.60005.60005,0,0,1,.59961-.59961h6.40039a.60006.60006,0,0,1,.59961.59961v3.79981Z"/></svg>